<svg width="334" height="334" viewBox="0 0 334 334" fill="none" xmlns="http://www.w3.org/2000/svg">
<g opacity="0.08">
<path d="M62.9834 182.297V190.911H37.8613V182.297H62.9834ZM41.6553 141.145V190.911H30.5127V141.145H41.6553Z" fill="#303030"/>
<path d="M107.69 164.934V167.156C107.69 170.938 107.166 174.334 106.118 177.341C105.093 180.349 103.623 182.913 101.709 185.032C99.8177 187.151 97.5619 188.78 94.9414 189.92C92.3438 191.036 89.4613 191.594 86.2939 191.594C83.1266 191.594 80.2327 191.036 77.6123 189.92C74.9919 188.78 72.7132 187.151 70.7764 185.032C68.8623 182.913 67.3812 180.349 66.333 177.341C65.2848 174.334 64.7607 170.938 64.7607 167.156V164.934C64.7607 161.152 65.2848 157.756 66.333 154.749C67.3812 151.718 68.8509 149.143 70.7422 147.024C72.6562 144.905 74.9235 143.287 77.5439 142.171C80.1644 141.031 83.0583 140.462 86.2256 140.462C89.3929 140.462 92.2868 141.031 94.9072 142.171C97.5277 143.287 99.7835 144.905 101.675 147.024C103.589 149.143 105.07 151.718 106.118 154.749C107.166 157.756 107.69 161.152 107.69 164.934ZM96.4453 167.156V164.866C96.4453 162.337 96.2174 160.103 95.7617 158.167C95.306 156.207 94.6452 154.566 93.7793 153.245C92.9134 151.923 91.8424 150.932 90.5664 150.271C89.2904 149.588 87.8434 149.246 86.2256 149.246C84.5394 149.246 83.0697 149.588 81.8164 150.271C80.5632 150.932 79.5036 151.923 78.6377 153.245C77.7946 154.566 77.1452 156.207 76.6895 158.167C76.2565 160.103 76.04 162.337 76.04 164.866V167.156C76.04 169.662 76.2565 171.895 76.6895 173.855C77.1452 175.792 77.806 177.433 78.6719 178.777C79.5378 180.121 80.5973 181.135 81.8506 181.819C83.1266 182.503 84.6077 182.844 86.2939 182.844C87.9118 182.844 89.3473 182.503 90.6006 181.819C91.8766 181.135 92.9476 180.121 93.8135 178.777C94.6794 177.433 95.3288 175.792 95.7617 173.855C96.2174 171.895 96.4453 169.662 96.4453 167.156Z" fill="#303030"/>
<path d="M154.619 164.627V184.69C153.799 185.624 152.546 186.627 150.859 187.698C149.196 188.769 147.065 189.692 144.468 190.466C141.87 191.218 138.771 191.594 135.171 191.594C131.912 191.594 128.95 191.07 126.284 190.022C123.618 188.951 121.328 187.39 119.414 185.339C117.5 183.266 116.019 180.737 114.971 177.752C113.945 174.767 113.433 171.349 113.433 167.498V164.558C113.433 160.707 113.945 157.289 114.971 154.304C115.996 151.319 117.443 148.801 119.312 146.751C121.18 144.677 123.402 143.105 125.977 142.034C128.551 140.963 131.4 140.427 134.521 140.427C138.965 140.427 142.599 141.145 145.425 142.581C148.25 143.993 150.392 145.953 151.851 148.46C153.332 150.966 154.243 153.849 154.585 157.107H143.853C143.625 155.444 143.169 154.008 142.485 152.8C141.825 151.593 140.879 150.67 139.648 150.032C138.418 149.371 136.823 149.041 134.863 149.041C133.291 149.041 131.867 149.371 130.591 150.032C129.338 150.67 128.278 151.638 127.412 152.937C126.546 154.236 125.885 155.854 125.43 157.791C124.974 159.705 124.746 161.938 124.746 164.49V167.498C124.746 170.05 124.974 172.294 125.43 174.231C125.908 176.168 126.603 177.786 127.515 179.085C128.426 180.361 129.577 181.329 130.967 181.99C132.38 182.651 134.02 182.981 135.889 182.981C137.347 182.981 138.577 182.867 139.58 182.639C140.583 182.389 141.403 182.081 142.041 181.716C142.679 181.329 143.158 180.976 143.477 180.657V172.385H134.624V164.627H154.619Z" fill="#303030"/>
<path d="M203.735 164.934V167.156C203.735 170.938 203.211 174.334 202.163 177.341C201.138 180.349 199.668 182.913 197.754 185.032C195.863 187.151 193.607 188.78 190.986 189.92C188.389 191.036 185.506 191.594 182.339 191.594C179.172 191.594 176.278 191.036 173.657 189.92C171.037 188.78 168.758 187.151 166.821 185.032C164.907 182.913 163.426 180.349 162.378 177.341C161.33 174.334 160.806 170.938 160.806 167.156V164.934C160.806 161.152 161.33 157.756 162.378 154.749C163.426 151.718 164.896 149.143 166.787 147.024C168.701 144.905 170.968 143.287 173.589 142.171C176.209 141.031 179.103 140.462 182.271 140.462C185.438 140.462 188.332 141.031 190.952 142.171C193.573 143.287 195.828 144.905 197.72 147.024C199.634 149.143 201.115 151.718 202.163 154.749C203.211 157.756 203.735 161.152 203.735 164.934ZM192.49 167.156V164.866C192.49 162.337 192.262 160.103 191.807 158.167C191.351 156.207 190.69 154.566 189.824 153.245C188.958 151.923 187.887 150.932 186.611 150.271C185.335 149.588 183.888 149.246 182.271 149.246C180.584 149.246 179.115 149.588 177.861 150.271C176.608 150.932 175.549 151.923 174.683 153.245C173.84 154.566 173.19 156.207 172.734 158.167C172.301 160.103 172.085 162.337 172.085 164.866V167.156C172.085 169.662 172.301 171.895 172.734 173.855C173.19 175.792 173.851 177.433 174.717 178.777C175.583 180.121 176.642 181.135 177.896 181.819C179.172 182.503 180.653 182.844 182.339 182.844C183.957 182.844 185.392 182.503 186.646 181.819C187.922 181.135 188.993 180.121 189.858 178.777C190.724 177.433 191.374 175.792 191.807 173.855C192.262 171.895 192.49 169.662 192.49 167.156Z" fill="#303030"/>
<path d="M215.903 141.145H225.132L237.095 176.726L249.023 141.145H258.252L240.82 190.911H233.335L215.903 141.145ZM210.571 141.145H219.971L221.714 178.025V190.911H210.571V141.145ZM254.185 141.145H263.618V190.911H252.441V178.025L254.185 141.145Z" fill="#303030"/>
<path d="M305.728 182.297V190.911H279.238V182.297H305.728ZM283.032 141.145V190.911H271.89V141.145H283.032ZM302.31 161.174V169.514H279.238V161.174H302.31ZM305.762 141.145V149.793H279.238V141.145H305.762Z" fill="#303030"/>
</g>
</svg>
